# File created by Blade
# Date/Time:  Wed Jan 21 14:43:55 2015
# Frame Rate: 120.000 fps
#------------------------------------------------------
:FULLY-SPECIFIED
:DEGREES
797
root 17.653848 35.404266 -20.941833 -169.954571 -2.913179 178.487814
Spine -5.391795 -6.535873 19.151492
Head -9.220933 3.401910 7.777567
LeftShoulder -14.853813 -10.457231 8.950114
LeftArm -40.067674 69.897655 -86.228829
LeftForeArm 48.066634 -0.000000 90.867874
LeftHand 9.809619 0.000000 15.252697
LeftHandThumb1 -26.253704 0.000000 33.147579
RightShoulder -16.079214 -27.291504 0.127684
RightArm 19.489118 -45.076483 29.752693
RightForeArm -50.739195 -0.000000 104.505694
RightHand 7.107865 -0.000000 -25.140205
RightHandThumb1 -24.326973 -0.000000 -32.862282
LeftUpLeg -1.993618 10.380921 -2.881696
LeftLeg -6.709282 -0.000000 0.000000
LeftFoot -19.267791 25.867489 -11.313795
LeftToeBase 27.350567 -0.000000 -0.000000
RightUpLeg -1.619065 -11.291468 -5.859831
RightLeg -4.539827 -0.000000 0.000000
RightFoot -19.694586 -22.990114 16.461745
RightToeBase 25.738755 -0.000000 -0.000000
798
root 17.726483 35.412090 -20.934849 -170.037259 -2.717350 178.727007
Spine -5.392608 -6.297766 18.649207
Head -9.120420 3.206265 7.441677
LeftShoulder -14.885491 -10.762976 8.989273
LeftArm -37.669930 69.061695 -83.106034
LeftForeArm 47.577471 -0.000000 89.933402
LeftHand 9.639662 -0.000000 15.289334
LeftHandThumb1 -26.253704 0.000000 33.147579
RightShoulder -15.983006 -27.082544 -0.020410
RightArm 19.186277 -44.862508 29.663343
RightForeArm -50.907692 -0.000000 103.113095
RightHand 7.284888 0.000000 -25.512044
RightHandThumb1 -24.326973 -0.000000 -32.862282
LeftUpLeg -1.905305 10.605604 -2.561900
LeftLeg -6.764409 -0.000000 0.000000
LeftFoot -19.274432 25.960414 -11.315902
LeftToeBase 27.443738 -0.000000 -0.000000
RightUpLeg -1.646643 -11.146658 -5.518881
RightLeg -4.497999 -0.000000 0.000000
RightFoot -19.631517 -22.909514 16.565507
RightToeBase 25.667031 -0.000000 -0.000000
799
root 17.797805 35.418628 -20.922599 -170.127168 -2.537526 178.944134
Spine -5.372283 -6.077702 18.130500
Head -9.023285 3.047216 7.110523
LeftShoulder -14.940705 -11.042322 9.025189
LeftArm -34.948865 68.090335 -79.699246
LeftForeArm 46.760891 -0.000000 88.878128
LeftHand 9.649419 -0.000000 14.973207
LeftHandThumb1 -26.253704 0.000000 33.147579
RightShoulder -15.950001 -26.868951 -0.153076
RightArm 19.068397 -44.545574 29.427350
RightForeArm -50.867421 -0.000000 101.419117
RightHand 7.702965 -0.000000 -26.055389
RightHandThumb1 -24.326973 -0.000000 -32.862282
LeftUpLeg -1.819240 10.781250 -2.258856
LeftLeg -6.808931 -0.000000 0.000000
LeftFoot -19.265679 26.084608 -11.286842
LeftToeBase 27.429625 -0.000000 -0.000000
RightUpLeg -1.689485 -10.906901 -5.225687
RightLeg -4.390527 -0.000000 0.000000
RightFoot -19.625443 -22.850111 16.653467
RightToeBase 25.580190 -0.000000 -0.000000
800
root 17.868996 35.425237 -20.898128 -170.155218 -2.325909 179.125048
Spine -5.382248 -5.777136 17.543592
Head -8.968338 2.841025 6.891221
LeftShoulder -14.935401 -11.458175 9.109704
LeftArm -32.838514 67.124207 -76.869628
LeftForeArm 45.925104 0.000000 87.730137
LeftHand 9.116180 -0.000000 15.233815
LeftHandThumb1 -26.253704 0.000000 33.147579
RightShoulder -15.878299 -26.533198 -0.241556
RightArm 18.716069 -44.271142 29.266279
RightForeArm -50.722537 -0.000000 99.788574
RightHand 7.675945 0.000000 -26.116518
RightHandThumb1 -24.326973 -0.000000 -32.862282
LeftUpLeg -1.843317 11.009001 -2.012734
LeftLeg -6.788019 -0.000000 0.000000
LeftFoot -19.296801 26.161142 -11.294188
LeftToeBase 27.532891 -0.000000 -0.000000
RightUpLeg -1.869521 -10.671345 -4.955288
RightLeg -4.184801 -0.000000 0.000000
RightFoot -19.669989 -22.789133 16.684119
RightToeBase 25.587119 -0.000000 -0.000000
801
root 17.934640 35.428616 -20.879864 -170.138287 -2.178191 179.273725
Spine -5.514093 -5.520375 16.974188
Head -8.860424 2.629380 6.645320
LeftShoulder -14.938532 -11.866100 9.213973
LeftArm -30.813071 66.038757 -74.151795
LeftForeArm 44.941284 -0.000000 86.400770
LeftHand 9.002105 0.000000 15.341263
LeftHandThumb1 -26.253704 0.000000 33.147579
RightShoulder -15.943224 -26.355586 -0.319533
RightArm 18.673188 -43.866150 28.937538
RightForeArm -50.206287 0.000000 97.872594
RightHand 7.418548 0.000000 -26.347100
RightHandThumb1 -24.326973 -0.000000 -32.862282
LeftUpLeg -1.894687 11.153840 -1.802533
LeftLeg -6.780646 -0.000000 0.000000
LeftFoot -19.289852 26.251332 -11.250617
LeftToeBase 27.538296 -0.000000 -0.000000
RightUpLeg -2.011760 -10.463353 -4.708790
RightLeg -4.087617 -0.000000 0.000000
RightFoot -19.703474 -22.811464 16.682544
RightToeBase 25.536984 -0.000000 -0.000000
802
root 18.002373 35.430841 -20.862296 -170.110307 -2.070269 179.398951
Spine -5.680179 -5.304389 16.360871
Head -8.738252 2.422928 6.470586
LeftShoulder -14.940967 -12.235903 9.332812
LeftArm -28.744545 64.827720 -71.407651
LeftForeArm 43.962598 -0.000000 85.028311
LeftHand 8.450474 -0.000000 15.130199
LeftHandThumb1 -26.253704 0.000000 33.147579
RightShoulder -15.983172 -26.112616 -0.358617
RightArm 18.586474 -43.432657 28.615312
RightForeArm -49.468736 -0.000000 95.721777
RightHand 7.571059 -0.000000 -26.590030
RightHandThumb1 -24.326973 -0.000000 -32.862282
LeftUpLeg -1.947980 11.249797 -1.605215
LeftLeg -6.795732 -0.000000 0.000000
LeftFoot -19.283391 26.343765 -11.236195
LeftToeBase 27.556106 -0.000000 -0.000000
RightUpLeg -2.121820 -10.329923 -4.486362
RightLeg -4.045021 -0.000000 0.000000
RightFoot -19.707640 -22.748326 16.655601
RightToeBase 25.555818 -0.000000 -0.000000
803
root 18.069649 35.430576 -20.848900 -170.166111 -1.984684 179.475535
Spine -5.741997 -5.127376 15.670093
Head -8.648121 2.281912 6.346672
LeftShoulder -14.913259 -12.679700 9.511274
LeftArm -26.907336 63.564912 -68.961579
LeftForeArm 43.032499 0.000000 83.445463
LeftHand 8.153962 -0.000000 15.556479
LeftHandThumb1 -26.253704 0.000000 33.147579
RightShoulder -16.059674 -25.804071 -0.306583
RightArm 18.468862 -43.017444 28.205939
RightForeArm -48.794882 -0.000000 93.553484
RightHand 7.405118 -0.000000 -26.369309
RightHandThumb1 -24.326973 -0.000000 -32.862282
LeftUpLeg -1.913821 11.315143 -1.433400
LeftLeg -6.798139 -0.000000 0.000000
LeftFoot -19.322710 26.429873 -11.293746
LeftToeBase 27.680160 -0.000000 -0.000000
RightUpLeg -2.167124 -10.278296 -4.316040
RightLeg -3.941908 -0.000000 0.000000
RightFoot -19.760948 -22.684542 16.517574
RightToeBase 25.590221 -0.000000 -0.000000
804
root 18.137302 35.430969 -20.831791 -170.205415 -1.914513 179.590464
Spine -5.840499 -4.950323 15.052268
Head -8.526445 2.077678 6.209637
LeftShoulder -14.829596 -13.077634 9.647015
LeftArm -25.054711 62.119103 -66.518860
LeftForeArm 42.173393 -0.000000 81.736363
LeftHand 7.991971 -0.000000 16.089833
LeftHandThumb1 -26.253704 0.000000 33.147579
RightShoulder -16.074202 -25.382809 -0.322704
RightArm 18.302020 -42.645784 27.871538
RightForeArm -47.997058 -0.000000 91.134363
RightHand 7.137281 -0.000000 -26.236249
RightHandThumb1 -24.326973 -0.000000 -32.862282
LeftUpLeg -1.904447 11.386427 -1.225114
LeftLeg -6.799444 -0.000000 0.000000
LeftFoot -19.298768 26.496294 -11.244823
LeftToeBase 27.660481 -0.000000 -0.000000
RightUpLeg -2.201971 -10.118635 -4.113665
RightLeg -3.891100 -0.000000 0.000000
RightFoot -19.813832 -22.681127 16.500349
RightToeBase 25.664582 -0.000000 -0.000000
805
root 18.204247 35.429369 -20.819796 -170.264451 -1.838763 179.635679
Spine -5.943412 -4.779379 14.329547
Head -8.370420 1.871041 6.122449
LeftShoulder -14.703866 -13.481382 9.791765
LeftArm -23.432774 60.720132 -64.264674
LeftForeArm 41.505149 -0.000000 79.933122
LeftHand 7.709728 -0.000000 16.542795
LeftHandThumb1 -26.253704 0.000000 33.147579
RightShoulder -16.012186 -24.968712 -0.320170
RightArm 17.975975 -42.180429 27.722251
RightForeArm -47.383108 -0.000000 88.559543
RightHand 7.221183 -0.000000 -26.142478
RightHandThumb1 -24.326973 -0.000000 -32.862282
LeftUpLeg -1.848785 11.434402 -1.079009
LeftLeg -6.828452 -0.000000 0.000000
LeftFoot -19.284645 26.579676 -11.276301
LeftToeBase 27.674507 -0.000000 -0.000000
RightUpLeg -2.220239 -10.087699 -3.977890
RightLeg -3.811721 -0.000000 0.000000
RightFoot -19.889834 -22.581167 16.366130
RightToeBase 25.715455 -0.000000 -0.000000
806
root 18.267605 35.428802 -20.802309 -170.317311 -1.791335 179.675352
Spine -6.026256 -4.592931 13.628861
Head -8.264421 1.681438 6.030531
LeftShoulder -14.510064 -13.985839 9.906640
LeftArm -21.995594 59.126446 -62.093225
LeftForeArm 40.635689 0.000000 78.104609
LeftHand 7.812840 -0.000000 15.853393
LeftHandThumb1 -26.253704 0.000000 33.147579
RightShoulder -15.972463 -24.442842 -0.333434
RightArm 17.580828 -41.670914 27.660858
RightForeArm -46.830909 0.000000 85.876700
RightHand 7.383037 -0.000000 -25.398010
RightHandThumb1 -24.326973 -0.000000 -32.862282
LeftUpLeg -1.828396 11.493449 -0.948845
LeftLeg -6.829552 -0.000000 0.000000
LeftFoot -19.270662 26.627901 -11.302941
LeftToeBase 27.741626 -0.000000 -0.000000
RightUpLeg -2.218840 -9.997653 -3.850591
RightLeg -3.789570 -0.000000 0.000000
RightFoot -19.942130 -22.590377 16.277766
RightToeBase 25.728167 -0.000000 -0.000000
807
root 18.331435 35.427159 -20.787858 -170.406294 -1.757369 179.718590
Spine -6.077559 -4.416434 12.928755
Head -8.164411 1.486312 5.971671
LeftShoulder -14.287342 -14.510365 10.024559
LeftArm -20.675708 57.540311 -60.085318
LeftForeArm 40.241345 -0.000000 76.241422
LeftHand 7.613600 -0.000000 15.466094
LeftHandThumb1 -26.253704 0.000000 33.147579
RightShoulder -15.999676 -24.047410 -0.282524
RightArm 17.407674 -40.967818 27.464401
RightForeArm -46.393827 -0.000000 83.048048
RightHand 7.490870 -0.000000 -24.171850
RightHandThumb1 -24.326973 -0.000000 -32.862282
LeftUpLeg -1.761122 11.537900 -0.801310
LeftLeg -6.837705 -0.000000 0.000000
LeftFoot -19.253399 26.665871 -11.326142
LeftToeBase 27.740932 -0.000000 -0.000000
RightUpLeg -2.167225 -9.940415 -3.724859
RightLeg -3.777365 -0.000000 0.000000
RightFoot -19.992403 -22.567585 16.152468
RightToeBase 25.840110 -0.000000 -0.000000
808
root 18.389074 35.425953 -20.772488 -170.490926 -1.749475 179.742637
Spine -6.157669 -4.346207 12.261652
Head -7.975990 1.360758 5.867496
LeftShoulder -14.132282 -14.938393 10.103688
LeftArm -19.230773 55.865240 -57.994880
LeftForeArm 39.861807 -0.000000 74.299466
LeftHand 7.541386 -0.000000 15.032390
LeftHandThumb1 -26.253704 0.000000 33.147579
RightShoulder -15.795023 -23.553631 -0.378892
RightArm 16.962769 -40.230298 27.576565
RightForeArm -45.859109 -0.000000 80.151290
RightHand 7.513318 -0.000000 -22.474371
RightHandThumb1 -24.326973 -0.000000 -32.862282
LeftUpLeg -1.717090 11.607888 -0.687698
LeftLeg -6.822537 -0.000000 0.000000
LeftFoot -19.231577 26.674574 -11.335520
LeftToeBase 27.787579 -0.000000 -0.000000
RightUpLeg -2.112188 -9.982715 -3.608128
RightLeg -3.781275 -0.000000 0.000000
RightFoot -20.041184 -22.532632 16.062444
RightToeBase 25.845887 -0.000000 -0.000000
